# xmcd CD database file
#
# Track frame offsets:
#	150
#	33872
#	59220
#	82205
#	114080
#	139547
#	164297
#	184660
#	206945
#	247257
#	275667
#
# Disc length: 3919 seconds
#
# Revision: 0
# Processed by: cddbd v1.5.2PL0 Copyright (c) Steve Scherf et al.
# Submitted via: CDex 1.51
#
DISCID=a60f4d0b
DTITLE=Alex Acuna and Justo Almario - Tolu
DYEAR=2002
DGENRE=Jazz
TTITLE0=Five
TTITLE1=Salvation Army
TTITLE2=Cançao do Sal
TTITLE3=El Madero
TTITLE4=Bongo de Van Gogh
TTITLE5=Findlandson
TTITLE6=Quitate de la Via Perico
TTITLE7=Vine a Bailar
TTITLE8=Historia de un Amor
TTITLE9=Suena Trombon
TTITLE10=Jubilo
EXTD=YEAR: 2002
EXTT0=
EXTT1=
EXTT2=
EXTT3=
EXTT4=
EXTT5=
EXTT6=
EXTT7=
EXTT8=
EXTT9=
EXTT10=
PLAYORDER=
